PathFileType	4	(X/Y/Z)	C:/Users/beibeiliu/ov580/test_trc/User1\sequence.32_training_dense_right.trc
DataRate	CameraRate	NumFrames	NumMarkers	Units	OrigDataRate	OrigDataStartFrame	OrigNumFrames
120	120	25	19	mm	120	57	224
Frame#	Time	ThumbCMC			ThumbMCP			ThumbIP			ThumbTip			IndexMCP			IndexPIP			IndexTip			MiddleMCP			MiddlePIP			MiddleTip			RingMCP			RingPIP			RingTip			PinkyMCP			PinkyPIP			PinkyTip			BackHand1			BackHand2			BackHand3	
		X0	Y0	Z0	X1	Y1	Z1	X2	Y2	Z2	X3	Y3	Z3	X4	Y4	Z4	X5	Y5	Z5	X6	Y6	Z6	X7	Y7	Z7	X8	Y8	Z8	X9	Y9	Z9	X10	Y10	Z10	X11	Y11	Z11	X12	Y12	Z12	X13	Y13	Z13	X14	Y14	Z14	X15	Y15	Z15	X16	Y16	Z16	X17	Y17	Z17	X18	Y18	Z18	
56	0.466667	140.861	6.2084	106.45	117.47	1.9089	81.7801	105.949	6.53073	58.4871	95.059	4.99411	35.7554	145.238	51.5924	30.48	139.767	47.2958	2.562	138.182	17.7284	-16.6516	168.725	52.2371	21.7718	164.281	39.1193	-8.82834	158.373	2.28123	-17.7755	192.325	44.8987	24.4761	189.957	32.4282	-9.03798	183.933	2.62234	-15.5974	213.808	29.8142	33.7231	214.295	22.6916	6.31	197.389	2.66705	-10.3123	202.006	34.815	84.2644	205.162	23.9302	115.424	168.772	34.3535	102.139	
57	0.475	139.241	5.39111	108.432	115.006	4.03935	82.0093	101.036	7.69826	57.3315	95.8342	4.80228	38.5798	142.31	51.0215	33.3488	140.839	44.7274	0.527421	139.123	11.6225	-11.3397	170.326	50.4902	21.1725	161.752	34.0502	-10.4688	159.6	-1.95601	-11.8734	194.605	42.569	23.8895	187.616	28.9982	-7.0466	176.807	-3.41725	-8.75491	216.334	28.1199	31.2487	207.043	19.7485	8.01924	187.794	-6.54513	-2.874	197.727	35.6314	85.4352	204.61	24.937	113.23	168.658	34.3074	102.818	
58	0.483333	138.766	6.54779	106.641	114.864	0.925276	85.1175	99.9911	5.12228	62.5486	94.8708	4.47371	36.7013	143.642	48.2398	32.2907	136.618	39.7921	-0.426792	135.696	7.40214	-6.91203	169.127	48.2442	22.3333	163.903	27.8552	-10.5498	154.97	-9.49139	-5.18968	188.882	40.408	22.6503	186.699	19.4841	-6.22096	177.325	-9.29676	-2.45551	214.545	24.8859	31.8809	205.309	11.7053	7.49428	185.728	-14.0965	4.81349	200.224	32.6174	84.8441	204.76	22.1501	117.722	167.559	33.0063	104.731	
59	0.491667	139.245	4.92395	106.762	111.752	1.17821	85.6809	104.254	5.93137	58.5333	93.5826	3.0065	38.1359	139.328	45.7464	30.9026	138.453	34.8697	-0.000198328	138.52	-0.604253	-3.12586	167.259	44.1853	16.9075	160.898	22.3827	-10.0901	156.524	-12.8736	-1.70815	191.434	35.6504	19.0652	185.299	12.5381	-6.42369	178.686	-17.029	4.12037	213.982	20.9265	32.002	204.711	4.69673	7.93232	183.554	-17.6603	14.149	197.411	33.5146	79.6312	203.688	22.0723	116.336	168.111	32.5837	104.318	
60	0.5	135.43	3.11153	109.362	115.823	1.00426	84.5065	100.44	5.03806	61.2368	88.9377	3.08314	37.2434	141.275	44.0376	26.5051	134.71	26.8653	-2.13763	132.69	-7.58736	0.411184	164.749	41.0935	19.3867	156.12	18.6024	-7.7724	156.561	-21.9516	7.52553	190.276	30.1362	14.797	182.899	5.76817	-3.86518	176.226	-23.392	11.7303	213.507	15.6951	30.5327	196.531	-1.73666	10.7604	182.554	-25.3669	19.9159	199.248	32.2987	80.3394	203.572	21.5616	114.214	166.717	33.2832	100.486	
61	0.508333	135.2	3.00834	106.21	110.194	-2.59092	87.1288	96.8567	2.68917	61.1466	91.7633	1.26229	38.6781	138.803	39.292	30.2338	137.541	21.2144	-1.78668	131.864	-9.68826	3.44588	167.2	34.1078	18.5959	154.421	8.51558	-6.81069	151.802	-25.091	11.4827	185.462	24.6293	16.9745	178.96	0.114906	-2.43704	173.93	-28.6715	16.1907	207.585	12.207	27.1312	198.124	-7.73225	11.6018	175.872	-29.4078	31.5926	197.86	28.4905	78.2999	202.455	19.0283	112.65	162.763	29.7183	101.598	
62	0.516667	133.632	0.660751	108.031	111.842	-4.34209	85.571	97.115	1.92685	58.7373	87.9343	-0.688953	38.312	140.762	33.746	28.4619	137.97	16.7498	0.44458	130.643	-18.1107	8.61446	164.381	27.5307	12.4537	153.948	0.0520889	-4.24165	153.446	-33.0466	20.6274	187.634	16.6428	17.657	173.678	-13.3252	1.63071	170.637	-37.1638	28.0795	209.706	5.19442	28.6759	192.153	-17.178	15.4923	174.326	-30.9319	39.6727	196.326	25.1582	80.8094	203.734	16.0458	114.511	164.241	26.2563	99.0971	
63	0.525	132.132	-1.71586	105.675	111.125	-6.19934	83.4081	95.8285	-1.83943	60.187	85.4163	-3.77633	35.2683	139.68	27.5611	25.2766	130.104	5.87422	-0.875448	133.764	-26.6513	15.5955	163.634	19.7541	14.3115	154.689	-8.09744	-1.77886	153.867	-40.1602	28.515	186.19	8.94891	17.4407	176.067	-22.0816	5.88621	170.79	-41.0915	31.776	206.863	-1.03068	27.82	190.025	-21.5746	17.9716	173.958	-37.0351	43.4336	195.638	25.1849	76.4844	201.043	13.0934	113.554	161.005	23.5964	98.2767	
64	0.533333	133.547	-6.41102	108.777	107.6	-7.39812	81.985	94.0687	-6.56443	61.6763	85.5693	-6.70028	35.4756	133.307	21.9397	24.3323	128.318	-6.56495	0.407274	131.797	-34.3108	21.2251	157.215	12.2636	13.0824	153.568	-20.3862	1.78804	148.656	-44.431	32.1705	182.06	0.934671	15.7622	172.341	-35.2406	10.6146	166.175	-46.8305	36.9469	201.359	-7.47381	25.7428	185.963	-32.8387	21.8311	173.53	-43.1187	49.5851	195.242	21.0344	72.8813	200.494	12.2242	110.279	162.45	20.4985	97.7142	
65	0.541667	131.217	-6.85902	105.801	110.812	-11.1307	81.5708	94.8302	-7.81467	59.989	85.7661	-11.1084	36.9253	134.105	15.2464	21.6235	133.244	-15.2975	2.15469	132.407	-39.2444	23.9029	160.221	2.70555	8.64096	151.823	-28.4663	4.15899	146.892	-48.543	35.9624	177.094	-7.5694	13.7128	166.899	-39.206	13.1743	162.34	-50.7586	44.8771	198.205	-15.4596	23.5488	184.056	-41.8621	26.7456	172.227	-43.2216	53.4944	194.749	16.7376	73.1553	197.939	7.91308	109.121	163.602	21.0876	93.3343	
66	0.55	130.331	-8.00567	104.071	110.06	-14.0519	81.4234	93.8308	-9.56721	55.4504	86.908	-13.9557	34.1771	135.235	6.06319	16.5681	129.402	-21.0275	2.06651	129.71	-45.6148	32.4386	158.757	-2.40721	11.1973	150.169	-37.2367	7.03546	148.837	-53.8793	44.6306	177.762	-16.7251	11.5504	167.041	-49.1357	17.7814	162.937	-55.617	47.4242	198.252	-21.5378	23.1784	183.666	-45.0881	26.1737	174.583	-47.7495	59.9185	196.363	14.6773	66.9756	199.551	5.90562	103.692	163.08	16.1406	93.0869	
67	0.558333	128.986	-9.34342	102.77	108.916	-15.3125	78.6648	97.7992	-13.1917	51.7232	85.4268	-18.417	32.4604	134.962	-0.825199	14.4167	129.276	-31.7488	4.82523	133.392	-50.1139	35.6407	154.261	-12.73	8.65622	150.484	-44.7032	8.94943	149.279	-60.9093	44.0252	179.553	-19.7402	13.6075	167.251	-52.4265	17.3389	164.441	-60.4446	49.7358	199.994	-28.4941	23.6662	179.59	-51.9346	32.559	173.089	-50.2485	61.5684	194.017	10.3871	67.3242	201.243	4.6391	103.941	159.583	15.7553	88.1156	
68	0.566667	129.184	-12.1698	100.364	109.959	-18.7808	78.4112	92.0743	-17.957	52.1847	84.1453	-23.0971	30.1356	135.235	-6.9319	14.656	133.847	-38.7853	4.18285	131.955	-57.1375	34.6791	158.234	-20.548	6.44291	151.807	-51.493	10.0576	149.419	-69.3607	44.6323	180.072	-27.9108	12.3085	166.763	-58.068	19.0032	162.351	-66.3896	53.6545	197.593	-34.1433	23.6388	182.11	-54.6761	30.4116	169.429	-51.5016	63.2175	191.461	7.91223	65.3476	198.424	4.04841	98.4969	163.197	12.6711	84.311	
69	0.575	132.403	-13.1525	95.0023	110.641	-21.8122	76.345	95.1465	-21.981	48.2	86.1092	-30.0006	30.9367	131.126	-16.4252	10.728	131.157	-47.0443	4.18919	133.285	-67.0494	32.0462	156.861	-24.6921	7.10797	149.498	-57.7575	8.5818	152.197	-79.4556	41.523	179.988	-31.9639	13.0661	167.468	-62.7685	18.1006	166.902	-75.8149	50.9699	195.773	-38.9792	23.2996	186.335	-63.0453	30.0225	169.642	-63.819	57.7656	193.518	5.33638	60.4862	193.872	3.86154	100.461	158.837	9.0701	86.1149	
70	0.583333	132.937	-15.7632	97.5826	111.527	-26.057	74.687	93.7215	-28.3737	51.299	84.3538	-36.1823	31.6636	135.469	-26.3894	8.79108	131.644	-55.7273	2.14147	132.298	-81.9323	27.7609	162.16	-32.8152	6.32915	150.932	-63.6865	4.1463	153.013	-92.0957	29.5706	179.81	-39.4893	13.724	170.298	-71.3662	14.0666	162.632	-88.9209	41.7649	199.199	-45.9856	24.0647	186.645	-71.3539	29.1593	166.87	-77.7809	46.9566	193.818	-1.27939	58.7199	195.296	2.59918	94.3159	160.891	9.17808	80.6609	
71	0.591667	133.135	-20.1795	97.0355	108.989	-31.7285	81.5239	97.1199	-39.905	55.1985	79.5471	-47.7859	39.3669	134.366	-42.3179	12.0623	133.997	-73.4393	0.703932	131.973	-100.429	11.6858	159.134	-51.5458	5.40072	153.775	-79.7951	-0.991157	150.422	-115.801	16.277	184.079	-56.716	13.5994	180.527	-87.4963	10.417	168.691	-113.22	31.2993	206.159	-59.6172	31.7004	195.642	-83.1575	25.9022	178.066	-102.112	36.4222	195.724	-11.4205	60.6645	196.074	-2.19076	96.8053	161.278	-2.55652	80.7896	
72	0.6	135.046	-38.095	101.899	108.918	-51.8325	85.8762	91.8476	-61.4176	67.2755	72.95	-69.1409	57.8535	137.341	-75.5207	19.6103	132.024	-103.738	1.51468	131.745	-132.087	-2.95037	163.955	-83.2388	9.49057	161.815	-110.566	-4.56733	156.782	-141.927	-7.05734	188.825	-83.6944	18.2699	184.888	-114.491	4.07809	184.366	-144.75	9.34857	212.525	-87.5201	40.3169	211.295	-115.051	31.5399	204.738	-141.69	28.413	195.012	-40.3361	60.515	198.534	-24.5701	87.1387	158.95	-29.1535	73.4117	
73	0.608333	135.193	-46.6637	92.8817	106.331	-55.9611	87.807	89.2679	-69.5159	72.2898	70.0134	-74.3353	65.6378	137.148	-93.2058	19.1949	129.213	-112.474	2.07214	129.754	-132.505	-14.3139	165.193	-98.6602	9.32688	163.92	-118.77	-6.19649	161.713	-145.648	-24.5741	190.278	-99.5173	19.6398	194.175	-123.762	-0.595082	193	-149.423	-11.0928	217.575	-103.2	43.8343	225.768	-123.925	34.5085	229.616	-146.642	18.8463	193.542	-58.8689	56.7002	198.301	-35.1614	83.7008	161.222	-41.8596	70.8335	
74	0.616667	135.905	-48.9509	90.7262	108.598	-61.5821	83.4248	88.869	-71.2781	72.9218	68.6454	-77.2725	66.5968	138.279	-95.3617	17.383	132.18	-111.076	-4.26629	135.071	-126.471	-23.1156	166.742	-100.375	6.36134	167.857	-117.454	-14.282	168.465	-133.755	-35.6356	192.852	-100.173	17.3891	196.318	-120.967	-7.48946	197.397	-135.12	-22.0199	219.142	-105.486	41.9322	229.244	-122.331	30.0466	237.599	-133.535	11.7885	197.189	-63.7971	52.7917	199.484	-37.732	79.8001	162.322	-46.9455	62.7901	
75	0.625	134.29	-49.9824	88.9752	108.569	-61.0455	85.9247	87.4061	-70.3922	74.8792	64.6472	-74.1878	67.8735	138.094	-92.8374	12.955	133.762	-104.969	-7.88368	131.786	-115.438	-29.6719	165.597	-91.8704	5.64017	165.52	-106.341	-20.8918	169.136	-119.733	-48.2622	193.752	-97.4334	10.2296	193.907	-106.684	-8.7066	198.395	-119.606	-31.3276	218.815	-101.137	38.8138	228.043	-112.306	29.1831	240.903	-117.652	8.34754	196.876	-62.411	51.4685	199.192	-38.8051	78.3998	160.207	-45.1098	61.2526	
76	0.633333	134.075	-50.6438	90.6671	106.508	-65.0622	82.0469	87.0417	-73.776	72.907	64.7323	-75.5909	70.8381	141.28	-84.4684	12.8023	132.064	-94.7625	-10.5084	135.511	-105.158	-38.6952	166.015	-83.9238	0.748589	168.218	-93.5872	-24.9151	168.735	-102.762	-50.6837	191.062	-88.3161	10.0138	195.855	-96.4787	-16.58	199.107	-103.581	-36.88	216.842	-96.289	33.0945	226.403	-105.048	22.3291	237.779	-105.694	0.0268094	193.569	-57.5167	55.1283	200.196	-37.1348	75.2192	161.96	-41.959	66.4795	
77	0.641667	131.659	-51.2432	90.6846	110.015	-67.4131	84.3507	87.1628	-73.5012	72.5618	65.1144	-77.8661	69.2286	135.365	-77.268	6.77639	133.661	-86.0634	-15.5937	137.469	-92.7339	-40.9456	167.387	-74.7429	-2.19398	165.342	-81.0726	-26.6758	172.933	-87.1444	-55.5861	194.84	-80.1296	2.81706	192.676	-85.3078	-17.7218	196.327	-90.123	-40.0579	220.239	-89.6511	30.4515	229.199	-97.5141	16.2418	240.694	-96.1534	-4.62825	192.612	-55.0738	51.9708	199.013	-36.9682	77.5936	162.68	-41.9027	65.5243	
78	0.65	131.374	-51.5453	93.8265	109.27	-66.5859	86.4253	83.4656	-72.452	68.6828	66.2164	-78.4851	62.6543	138.989	-68.7841	9.65839	132.369	-73.2638	-16.9609	137.32	-78.6271	-43.2953	166.566	-63.7149	0.353149	170.022	-67.9626	-28.0551	171.705	-71.266	-56.5162	193.587	-69.9969	3.03649	196.829	-72.6431	-22.3104	197.797	-77.6808	-45.3319	219.907	-81.8913	23.8414	228.182	-86.1155	13.8461	235.541	-81.9196	-7.53853	191.17	-46.9722	52.9356	193.783	-30.6703	82.8139	160.238	-38.8813	67.116	
79	0.658333	131.52	-52.8119	92.9632	108.452	-64.5647	83.1885	90.7978	-71.0889	69.9495	69.9022	-74.2754	60.0726	135	-58.6528	5.18504	135.916	-60.4546	-20.8922	132.943	-63.522	-44.4875	164.417	-52.6243	-1.0522	167.004	-54.1048	-27.9145	169.403	-53.3459	-61.5706	189.774	-58.6207	5.18461	192.919	-58.8878	-23.6619	196.795	-61.4577	-49.3078	220.118	-71.1184	21.7416	223.072	-74.9098	6.71921	237.57	-68.2219	-11.5915	190.743	-41.3693	55.643	192.682	-29.6553	83.5073	158.359	-36.0421	72.0828	
80	0.666667	132.959	-50.3919	94.282	108.222	-61.6093	79.5896	88.9798	-65.2526	65.7252	67.7017	-67.1572	61.9211	139.408	-47.1986	4.78283	134.438	-47.3248	-19.6526	135.08	-47.1885	-45.1236	167.161	-42.3751	-2.65511	169.561	-40.238	-28.7083	168.373	-36.601	-57.1911	191.154	-46.8333	4.79704	192.679	-45.8925	-21.3297	195.639	-43.8002	-47.5034	216.481	-60.8643	19.8268	226.997	-63.5649	3.65375	237.865	-55.6879	-15.9546	190.015	-36.4484	56.7785	194.746	-28.8169	86.6038	159.06	-32.8121	74.0467	
